<?xml version="1.0" encoding="utf-8"?>
<!-- Generator: Adobe Illustrator 22.1.0, SVG Export Plug-In . SVG Version: 6.00 Build 0)  -->
<svg version="1.1" id="图层_1" xmlns="http://www.w3.org/2000/svg" xmlns:xlink="http://www.w3.org/1999/xlink" x="0px" y="0px"
	 viewBox="0 0 24 24" style="enable-background:new 0 0 24 24;" xml:space="preserve">
<style type="text/css">
	.st0{fill-rule:evenodd;clip-rule:evenodd;fill:#A4A5A6;}
	.st1{fill-rule:evenodd;clip-rule:evenodd;fill:#636466;}
	.st2{fill-rule:evenodd;clip-rule:evenodd;fill:#97B8FF;}
	.st3{fill-rule:evenodd;clip-rule:evenodd;fill:#4C84FF;}
	.st4{fill:#97B8FF;}
	.st5{fill:#4C84FF;}
	.st6{fill:#A4A5A6;}
	.st7{fill:#636466;}
</style>
<g>
	<path class="st2" d="M12.9,13h8.6c0.8,0,1.4,0.6,1.4,1.4c0,0.8-0.6,1.4-1.4,1.4h-8.6c-0.8,0-1.4-0.6-1.4-1.4
		C11.5,13.6,12.1,13,12.9,13z"/>
	<path class="st2" d="M12.9,18.7h8.6c0.8,0,1.4,0.6,1.4,1.4c0,0.8-0.6,1.4-1.4,1.4h-8.6c-0.8,0-1.4-0.6-1.4-1.4
		C11.5,19.3,12.1,18.7,12.9,18.7z"/>
	<path class="st3" d="M2.9,2.5H21c1,0,1.9,0.9,1.9,1.9v3.8c0,1-0.9,1.9-1.9,1.9H2.9c-1,0-1.9-0.9-1.9-1.9V4.4C1,3.4,1.9,2.5,2.9,2.5
		z"/>
	<path class="st3" d="M2.9,13h4.8c1,0,1.9,0.9,1.9,1.9v4.8c0,1-0.9,1.9-1.9,1.9H2.9c-1,0-1.9-0.9-1.9-1.9v-4.8C1,13.8,1.9,13,2.9,13
		z"/>
</g>
</svg>
