<?xml version="1.0" encoding="UTF-8"?>
<svg width="5px" height="12px" viewBox="0 0 5 12" version="1.1" xmlns="http://www.w3.org/2000/svg" xmlns:xlink="http://www.w3.org/1999/xlink">
    <!-- Generator: Sketch 48.1 (47250) - http://www.bohemiancoding.com/sketch -->
    <title>Group 3</title>
    <desc>Created with Sketch.</desc>
    <defs></defs>
    <g id="Design" stroke="none" stroke-width="1" fill="none" fill-rule="evenodd">
        <g id="Group-3" fill="#C1C7D0" fill-rule="nonzero">
            <path d="M0,1 C0,0.44771525 0.44771525,0 1,0 C1.55228475,0 2,0.44771525 2,1 L2,11 C2,11.5522847 1.55228475,12 1,12 C0.44771525,12 0,11.5522847 0,11 L0,1 Z" id="Line"></path>
            <path d="M3,1 C3,0.44771525 3.44771525,0 4,0 C4.55228475,0 5,0.44771525 5,1 L5,11 C5,11.5522847 4.55228475,12 4,12 C3.44771525,12 3,11.5522847 3,11 L3,1 Z" id="Line-Copy"></path>
        </g>
    </g>
</svg>