<?xml version="1.0" encoding="UTF-8" ?>
<!DOCTYPE svg PUBLIC "-//W3C//DTD SVG 1.1//EN" "http://www.w3.org/Graphics/SVG/1.1/DTD/svg11.dtd">
<svg width="22pt" height="22pt" viewBox="0 0 22 22" version="1.1" xmlns="http://www.w3.org/2000/svg">
<g id="#4c4d4fc6">
<path fill="#4c4d4f" opacity="0.78" d=" M 5.84 3.96 C 7.87 -0.40 15.04 0.06 16.48 4.66 C 17.73 7.15 16.16 9.63 14.60 11.51 C 18.57 13.10 21.26 17.03 21.18 21.32 C 18.58 20.57 19.22 17.07 17.39 15.47 C 14.26 11.66 7.70 11.68 4.58 15.50 C 2.78 17.10 3.42 20.60 0.82 21.31 C 0.74 17.03 3.44 13.10 7.40 11.52 C 5.56 9.49 4.18 6.54 5.84 3.96 M 6.83 4.94 C 6.50 7.69 7.86 10.88 10.99 10.99 C 14.12 10.90 15.51 7.69 15.17 4.93 C 13.09 1.94 8.90 1.95 6.83 4.94 Z" />
</g>
</svg>
