<?xml version="1.0" encoding="UTF-8" ?>
<!DOCTYPE svg PUBLIC "-//W3C//DTD SVG 1.1//EN" "http://www.w3.org/Graphics/SVG/1.1/DTD/svg11.dtd">
<svg width="24pt" height="24pt" viewBox="0 0 24 24" version="1.1" xmlns="http://www.w3.org/2000/svg">
<g id="#464747b3">
<path fill="#464747" opacity="0.70" d=" M 9.70 0.00 L 14.23 0.00 C 16.52 1.23 19.09 3.07 19.08 5.97 C 19.60 8.71 17.44 10.66 15.72 12.40 C 20.23 14.23 23.50 18.71 23.08 23.70 C 21.16 20.69 20.64 16.56 17.23 14.73 C 13.14 11.79 7.08 13.13 4.18 17.09 C 2.95 19.22 2.17 21.58 0.92 23.70 C 0.50 18.71 3.76 14.23 8.28 12.40 C 6.56 10.66 4.42 8.69 4.92 5.96 C 4.94 3.09 7.45 1.27 9.70 0.00 M 10.29 1.35 C 7.23 2.20 4.69 6.12 6.86 8.99 C 8.97 12.83 15.03 12.84 17.14 8.99 C 20.01 4.92 14.48 -0.35 10.29 1.35 Z" />
</g>
</svg>
