<?xml version="1.0" encoding="utf-8"?>
<!-- Generator: Adobe Illustrator 22.1.0, SVG Export Plug-In . SVG Version: 6.00 Build 0)  -->
<svg version="1.1" id="图层_1" xmlns="http://www.w3.org/2000/svg" xmlns:xlink="http://www.w3.org/1999/xlink" x="0px" y="0px"
	 viewBox="0 0 24 24" style="enable-background:new 0 0 24 24;" xml:space="preserve">
<style type="text/css">
	.st0{fill-rule:evenodd;clip-rule:evenodd;fill:#A4A5A6;}
	.st1{fill-rule:evenodd;clip-rule:evenodd;fill:#636466;}
	.st2{fill-rule:evenodd;clip-rule:evenodd;fill:#97B8FF;}
	.st3{fill-rule:evenodd;clip-rule:evenodd;fill:#4C84FF;}
	.st4{fill:#97B8FF;}
	.st5{fill:#4C84FF;}
	.st6{fill:#A4A5A6;}
	.st7{fill:#636466;}
	.st8{fill:#B4C6D1;}
</style>
<g>
	<path class="st4" d="M4.7,20.2c0,0.1,0,0.2,0.1,0.3c-2.2-0.3-3.9-1-3.9-2.1c0-3,1.8-5.5,4.2-6.7c0.9,0.7,2,1,3.1,1
		C6.1,14.5,4.7,17.2,4.7,20.2 M7.6,6.5c0-1.4,0.4-2.9,1.3-4H8.5c-2.6,0-4.8,2.1-4.8,4.7c0,2.6,2.1,4.8,4.7,4.8
		c0.6,0,1.2-0.1,1.7-0.3C8.6,10.5,7.6,8.6,7.6,6.5"/>
	<path class="st5" d="M18,12.1c-1.1,0.7-2.3,1.1-3.7,1.1c-1.3,0-2.6-0.4-3.7-1.1c-2.9,1.4-4.8,4.4-4.8,7.8c0,3.6,17.3,3.6,17.3,0
		C23,16.5,21,13.5,18,12.1 M8.6,6.5c0-1.5,0.6-3,1.7-4.1c1.1-1.1,2.6-1.7,4.1-1.7c1.5,0,3,0.6,4.1,1.7c1.1,1.1,1.7,2.6,1.7,4.1
		c0,3.2-2.6,5.8-5.8,5.8S8.6,9.7,8.6,6.5 M7.6,6.5"/>
</g>
</svg>
