<?xml version="1.0" encoding="UTF-8" ?>
<!DOCTYPE svg PUBLIC "-//W3C//DTD SVG 1.1//EN" "http://www.w3.org/Graphics/SVG/1.1/DTD/svg11.dtd">
<svg width="24pt" height="24pt" viewBox="0 0 24 24" version="1.1" xmlns="http://www.w3.org/2000/svg">
<g id="#454646b1">
<path fill="#454646" opacity="0.69" d=" M 12.67 0.00 L 13.00 0.00 C 14.87 3.68 19.25 4.09 22.70 5.37 C 23.81 12.40 19.81 19.89 14.14 24.00 L 9.92 24.00 C 3.66 20.11 1.57 12.58 0.61 5.72 C 5.00 4.69 8.99 2.57 12.67 0.00 M 2.02 6.71 C 3.30 12.90 5.21 20.86 11.99 23.06 C 18.84 20.91 20.62 12.87 22.03 6.72 C 18.52 5.62 15.12 4.15 12.07 2.07 C 9.08 4.31 5.61 5.74 2.02 6.71 Z" />
<path fill="#454646" opacity="0.69" d=" M 10.79 15.22 C 13.20 12.75 15.67 10.29 18.59 8.42 C 16.32 11.65 13.63 14.62 10.51 17.05 C 8.53 15.41 6.73 13.56 5.42 11.33 C 7.20 12.64 8.98 13.95 10.79 15.22 Z" />
</g>
</svg>
